<?xml version="1.0"?>
<svg width="72" height="180" viewBox="0 0 72 180" xmlns="http://www.w3.org/2000/svg" xmlns:svg="http://www.w3.org/2000/svg" fill="red">
  <title>Layer 1</title>
  <g clip-path="url(#p.0)" id="svg_1">
    <path d="m11.59138,43.23885l49.196389,0l0,0c3.07407,0 6.022236,1.221161 8.195927,3.394859c2.173698,2.173691 3.394859,5.121853 3.394859,8.195923l0,57.952518c0,0.000343 -0.000259,0.000603 -0.000603,0.000603l-72.377353,-0.000603l0,0c-0.00033,0 -0.0006,-0.000267 -0.0006,-0.000603l0.0006,-57.951916l0,0c0,-6.401413 5.18937,-11.590782 11.59078,-11.590782z" fill-rule="nonzero" id="svg_2"/>
    <path d="m15.51241,19.732281l0,0c0,-10.89784 9.257482,-19.732281 20.677169,-19.732281l0,0c5.483921,0 10.74324,2.07893 14.62096,5.77945c3.87772,3.70052 6.056198,8.71951 6.056198,13.952831l0,0c0,10.897839 -9.257477,19.732288 -20.677158,19.732288l0,0c-11.419687,0 -20.677169,-8.83445 -20.677169,-19.732288z" fill-rule="nonzero" id="svg_3"/>
    <path d="m15.51241,109.978996l41.354327,0l0,69.543312l-41.354327,0l0,-69.543312z" fill-rule="nonzero" id="svg_4"/>
  </g>
</svg>
